<svg width="400" height="400" viewBox="0 0 400 400" fill="none" xmlns="http://www.w3.org/2000/svg">
<g clip-path="url(#clip0_702_3)">
<path d="M185.687 165.662C187.687 167.162 192.187 174.162 201.687 176.162" stroke="white" stroke-width="10" stroke-linecap="round"/>
<path d="M163.687 192.662C169.687 190.107 175.187 187.662 187.687 190.107C193.352 191.961 198.687 195.551 204.243 191.551C209.937 187.451 214.558 182.165 220.687 178.662" stroke="white" stroke-width="10" stroke-linecap="round"/>
<path d="M201.687 223.662C197.188 219.163 191.285 214.662 184.687 214.662" stroke="white" stroke-width="10" stroke-linecap="round"/>
<path d="M216.687 197.662C220.124 201.1 226.394 205.396 226.687 210.662C227.108 218.24 215.044 227.651 210.687 232.662" stroke="white" stroke-width="10" stroke-linecap="round"/>
<path d="M208.687 210.662C208.687 211.421 208.979 211.016 209.687 210.662" stroke="white" stroke-width="10" stroke-linecap="round"/>
<path d="M125.687 189.662C126.187 190.662 137.979 198.516 138.687 198.162" stroke="white" stroke-width="10" stroke-linecap="round"/>
<path d="M175.687 175.662C175.687 176.421 175.979 176.016 176.687 175.662" stroke="white" stroke-width="10" stroke-linecap="round"/>
<path d="M337 214C337 214.759 337.292 214.354 338 214" stroke="white" stroke-width="10" stroke-linecap="round"/>
<path d="M147.687 240.662C147.687 241.421 147.979 241.016 148.687 240.662" stroke="white" stroke-width="10" stroke-linecap="round"/>
<path d="M186.687 144.301C189.687 147.177 195.465 158.393 200.05 160.162C204.698 161.957 203.187 152.662 213.687 152.662" stroke="white" stroke-width="10" stroke-linecap="round"/>
<path d="M161.687 206.097C162.907 208.302 170.012 207.98 171.983 207.599C176.26 206.773 178.352 204.825 181.741 202.376" stroke="white" stroke-width="10" stroke-linecap="round"/>
<path d="M149.073 205.093C148.707 208.391 145.567 213.542 143.675 216.381" stroke="white" stroke-width="10" stroke-linecap="round"/>
<path d="M226.392 158.195C225.576 163.858 219.036 168.191 213.687 167.959" stroke="white" stroke-width="10" stroke-linecap="round"/>
<path d="M172.029 219.816C168.405 222.78 145.949 227.765 141.687 229.162C136.622 230.823 128.356 235.37 123.187 236.662" stroke="white" stroke-width="10" stroke-linecap="round"/>
<path d="M150.386 192.669C140.687 182.162 140.687 162.662 140.687 148.662" stroke="white" stroke-width="10" stroke-linecap="round"/>
<path d="M176.936 232.595C180.435 232.595 184.212 229.389 187.242 230.904C188.651 231.608 190.096 232.094 191.278 233.194C192.451 234.287 194.907 235.164 195.585 236.521" stroke="white" stroke-width="10" stroke-linecap="round"/>
<path d="M225.687 189.662C227.187 190.662 233.687 196.662 236.187 196.162" stroke="white" stroke-width="10" stroke-linecap="round"/>
<path d="M271.528 220.022C267.905 222.987 245.449 227.971 241.187 229.368C236.122 231.029 227.856 235.576 222.687 236.868" stroke="white" stroke-width="10" stroke-linecap="round"/>
<path d="M153.687 262.662C154.059 259.314 167.187 245.662 162.187 237.662" stroke="white" stroke-width="10" stroke-linecap="round"/>
<path d="M154.687 160.662C155.059 157.314 168.187 143.662 163.187 135.662" stroke="white" stroke-width="10" stroke-linecap="round"/>
<path d="M176.687 152.662C168.685 160.664 163.753 171.596 155.687 179.662" stroke="white" stroke-width="10" stroke-linecap="round"/>
<path d="M149.687 139.662C149.687 140.421 149.979 140.016 150.687 139.662" stroke="white" stroke-width="10" stroke-linecap="round"/>
<path d="M186.687 244.301C189.687 247.177 195.465 258.393 200.05 260.162C204.698 261.957 203.752 256.286 206.643 254.263" stroke="white" stroke-width="10" stroke-linecap="round"/>
<path d="M175.187 248.662C170.687 266.162 172.277 298.674 175.187 315.162" stroke="white" stroke-width="10" stroke-linecap="round"/>
<path d="M239.542 212.607C244.37 207.78 248.373 202.369 250.062 195.614" stroke="white" stroke-width="10" stroke-linecap="round"/>
<path d="M135.394 266.204C135.844 271.151 141.265 276.371 145.914 277.533" stroke="white" stroke-width="10" stroke-linecap="round"/>
<path d="M120.592 209.37C120.592 214.385 121.899 219.081 127.875 219.081" stroke="white" stroke-width="10" stroke-linecap="round"/>
<path d="M216.885 250.639C220.548 254.76 220.541 261.907 219.313 266.822" stroke="white" stroke-width="10" stroke-linecap="round"/>
<path d="M230.023 248.593C233.412 247.166 237.475 247.086 241.037 246.12C245.995 244.776 250.963 243.47 255.917 242.119" stroke="white" stroke-width="10" stroke-linecap="round"/>
<path d="M254.917 211.798C257.634 209.081 260.886 207.878 264.627 206.943" stroke="white" stroke-width="10" stroke-linecap="round"/>
<path d="M233.069 261.967C233.182 262.758 233.447 262.183 233.878 261.967" stroke="white" stroke-width="10" stroke-linecap="round"/>
<path d="M159.433 275.723C159.433 279.016 158.624 282.204 158.624 285.434" stroke="white" stroke-width="10" stroke-linecap="round"/>
<path d="M141.013 252.066C138.565 252.066 135.775 252.459 133.37 252.021C131.708 251.719 130.671 250.448 128.875 250.448" stroke="white" stroke-width="10" stroke-linecap="round"/>
<path d="M186.136 266.013C186.136 272.247 191.654 278.814 195.846 283.006" stroke="white" stroke-width="10" stroke-linecap="round"/>
<path d="M186.136 295.953C188.488 297.198 191.481 298.49 194.228 297.392C196.078 296.651 197.918 295.144 199.892 295.144" stroke="white" stroke-width="10" stroke-linecap="round"/>
<path d="M204.747 274.914C207.272 279.206 212.057 281.532 214.412 286.243C216.988 291.394 215.101 293.048 212.839 297.571" stroke="white" stroke-width="10" stroke-linecap="round"/>
<path d="M129.989 175.405C126.615 172.705 114.067 170.573 112.187 176.214" stroke="white" stroke-width="10" stroke-linecap="round"/>
<path d="M113.851 193.662C113.492 197.251 110.192 202.792 108.187 205.8" stroke="white" stroke-width="10" stroke-linecap="round"/>
<path d="M97.2707 191.805C93.7176 197.296 92.196 204.43 90.3926 210.641C89.9619 212.125 88.1916 215.003 89.6734 216.485C91.5872 218.399 96.4077 218.679 98.8891 219.317C102.191 220.167 105.187 220.936 108.599 220.936" stroke="white" stroke-width="10" stroke-linecap="round"/>
<path d="M241.588 183.049C242.236 180.132 260.018 174.475 260.199 179.183C260.297 181.731 262.313 186.467 263.436 188.713" stroke="white" stroke-width="10" stroke-linecap="round"/>
<path d="M121.592 158.583C121.592 153.972 124.02 149.476 124.02 144.827" stroke="white" stroke-width="10" stroke-linecap="round"/>
<path d="M89.8432 176.194C89.8432 168.831 90.7624 161.298 93.0799 154.346" stroke="white" stroke-width="10" stroke-linecap="round"/>
<path d="M106.027 160.155C106.027 163.282 108.183 160.155 107.645 160.155" stroke="white" stroke-width="10" stroke-linecap="round"/>
<path d="M70 156.296C70.3453 155.291 72.1222 155.042 72.9104 154.242C75.0867 152.032 77.034 149.683 79.2842 147.493C83.3206 143.564 87.1294 140.871 91.8552 137.908C97.1674 134.577 99.5945 137.716 103.948 140.257" stroke="white" stroke-width="10" stroke-linecap="round"/>
<path d="M76 182C76 187.245 76.3663 189.527 80.8551 192.519" stroke="white" stroke-width="10" stroke-linecap="round"/>
<path d="M110.836 233.883C107.128 237.59 100.541 241.514 95.4615 242.784" stroke="white" stroke-width="10" stroke-linecap="round"/>
<path d="M113.309 251.448C113.309 254.126 112.228 259.585 113.489 261.967C114.759 264.366 119.98 261.553 121.401 264.395" stroke="white" stroke-width="10" stroke-linecap="round"/>
<path d="M273.673 236.501C273.673 239.729 275.224 246.874 272.054 248.459C268.077 250.448 264.901 252.911 260.726 254.303" stroke="white" stroke-width="10" stroke-linecap="round"/>
<path d="M247.588 258.731C251.159 262.748 254.008 269.554 256.669 274.285C259.765 279.79 264.498 292.958 271.054 295.144" stroke="white" stroke-width="10" stroke-linecap="round"/>
<path d="M201.5 138.5C207.171 137.933 219 136 229.832 143.017" stroke="white" stroke-width="10" stroke-linecap="round"/>
<path d="M176.426 134.116C185.362 128.466 193.488 123.683 203.129 119.551" stroke="white" stroke-width="10" stroke-linecap="round"/>
<path d="M238.733 155.964C238.733 159.637 239.381 166.969 235.496 168.911" stroke="white" stroke-width="10" stroke-linecap="round"/>
<path d="M277.574 185.904C277.574 167.927 271.011 150.031 265.436 133.307" stroke="white" stroke-width="10" stroke-linecap="round"/>
<path d="M277.574 199.66C277.574 202.44 278.219 204.963 278.383 207.752C278.494 209.635 293.725 208.561 296.185 208.561" stroke="white" stroke-width="10" stroke-linecap="round"/>
<path d="M285.666 222.317C284.452 224.896 284.973 227.095 282.429 228.791" stroke="white" stroke-width="10" stroke-linecap="round"/>
<path d="M299.422 223.127C299.686 226.56 302.843 231.311 305.895 232.837" stroke="white" stroke-width="10" stroke-linecap="round"/>
<path d="M271.1 266.822C276.277 266.822 281.299 267.632 286.475 267.632" stroke="white" stroke-width="10" stroke-linecap="round"/>
<path d="M287.284 255.494C287.284 249.793 289.576 244.573 291.33 239.31" stroke="white" stroke-width="10" stroke-linecap="round"/>
<path d="M278.383 281.388C278.543 282.671 281.542 285.103 282.429 286.243C284.474 288.872 285.627 292.243 287.284 295.144" stroke="white" stroke-width="10" stroke-linecap="round"/>
<path d="M225.786 279.769C231.252 279.466 236.441 277.342 241.97 277.342" stroke="white" stroke-width="10" stroke-linecap="round"/>
<path d="M290.521 194.805C294.797 190.102 298.1 184.627 303.468 181.049" stroke="white" stroke-width="10" stroke-linecap="round"/>
<path d="M246.016 145.445C246.666 148.371 252.164 152.695 254.107 154.975C255.586 156.709 258.006 158.906 258.963 160.819" stroke="white" stroke-width="10" stroke-linecap="round"/>
<path d="M252 134.5C235 128.5 244.895 114.71 247.5 109.5" stroke="white" stroke-width="10" stroke-linecap="round"/>
<path d="M258.153 121.979C253.114 121.979 267.778 118.921 272.719 117.933" stroke="white" stroke-width="10" stroke-linecap="round"/>
<path d="M206.366 102.558C210.285 103.048 214.361 107.677 216.705 110.021C219.686 113.001 215.703 122.287 214.457 126.024" stroke="white" stroke-width="10" stroke-linecap="round"/>
<path d="M229.832 119.551C231.634 119.326 231.576 115.254 230.641 117.123" stroke="white" stroke-width="10" stroke-linecap="round"/>
<path d="M220.931 84.7561C220.931 86.9686 222.567 99.3136 226.595 97.5233C232.464 94.9148 240.53 97.3737 246.825 95.2755" stroke="white" stroke-width="10" stroke-linecap="round"/>
<path d="M261.772 104.986C261.772 96.1966 258.761 86.5254 251.252 81.5194" stroke="white" stroke-width="10" stroke-linecap="round"/>
<path d="M120.759 129.17C122.687 131.595 128.594 133.749 131.668 133.49C136.426 133.09 140.404 130.074 144.131 127.355C149.109 123.724 154.706 121.214 159.836 117.788C161.909 116.404 163.711 116.963 166.098 117.235" stroke="white" stroke-width="10" stroke-linecap="round"/>
<path d="M273.528 104.986C280.005 108.224 286.984 110.37 293.173 114.201C295.881 115.878 296.723 117.131 296.005 120.36C294.254 128.242 288.923 132.062 284.856 138.162" stroke="white" stroke-width="10" stroke-linecap="round"/>
<path d="M289.712 156.774C289.945 158.641 292.655 159.935 294.207 160.37C298.5 161.572 301.457 157.798 303.827 154.751C306.092 151.839 310.325 151.918 313.987 151.918" stroke="white" stroke-width="10" stroke-linecap="round"/>
<path d="M296.994 142.208C299.883 141.847 302.948 138.335 305.895 137.353" stroke="white" stroke-width="10" stroke-linecap="round"/>
<path d="M288.902 175.385C289.204 172.972 287.91 175.776 289.712 174.576" stroke="white" stroke-width="10" stroke-linecap="round"/>
<path d="M323.171 117.016C323.472 114.603 322.178 117.408 323.98 116.207" stroke="white" stroke-width="10" stroke-linecap="round"/>
<path d="M313.987 168.911C314.501 173.538 325.226 175.97 325.226 180.644C325.226 184.893 318.611 189.836 317.224 193.996" stroke="white" stroke-width="10" stroke-linecap="round"/>
<path d="M305.086 200.469C307.098 200.972 309.118 206.531 311.559 207.752" stroke="white" stroke-width="10" stroke-linecap="round"/>
<path d="M323.697 162.438C324.084 158.958 328.561 154.337 330.98 151.918" stroke="white" stroke-width="10" stroke-linecap="round"/>
<path d="M318.415 137.353C321.385 136.982 312.404 122.287 309.514 120.36" stroke="white" stroke-width="10" stroke-linecap="round"/>
<path d="M236 77.9469C237.533 77.7553 240.445 72.0231 241.484 70.6643C242.917 68.7909 244.418 66.9377 245.71 65" stroke="white" stroke-width="10" stroke-linecap="round"/>
<path d="M170 104C175 104 180.5 109 180.5 116" stroke="white" stroke-width="10" stroke-linecap="round"/>
<path d="M136.394 104.177C145.121 112.904 154.587 100.317 158.602 93.7471C159.889 91.6415 162.057 87.1837 164.716 87.1837C169.892 87.1837 174.873 90.4204 180.09 90.4204" stroke="white" stroke-width="10" stroke-linecap="round"/>
<path d="M124.638 281.388C124.638 284.542 123.511 290.225 124.818 293.166C126.495 296.938 135.52 291.098 138.394 291.098C142.048 291.098 142.886 294.866 144.238 297.571C145.25 299.594 146.829 302.638 149.318 303.191C150.823 303.525 151.596 303.136 152.959 304.045" stroke="white" stroke-width="10" stroke-linecap="round"/>
<path d="M296.994 278.96C296.994 274.267 296.25 268.549 301.04 266.013C302.51 265.235 303.772 263.586 305.491 263.586C306.587 263.586 308.113 263.859 309.132 263.406C310.211 262.926 311.827 263.202 312.728 262.687C314.563 261.638 310.61 255.344 310.121 254.055C309.076 251.299 305.895 252.042 305.895 249.83" stroke="white" stroke-width="10" stroke-linecap="round"/>
<path d="M236.283 291C233.59 293.693 231.376 296.931 229 299.901" stroke="white" stroke-width="10" stroke-linecap="round"/>
<path d="M129.493 118.742C126.879 116.65 119.874 115.505 116.546 115.505" stroke="white" stroke-width="10" stroke-linecap="round"/>
<path d="M124.638 101.749C124.638 99.0299 125.951 95.5808 127.875 93.6572" stroke="white" stroke-width="10" stroke-linecap="round"/>
<path d="M144.058 91.2296C143.777 88.6969 140.229 87.5002 139.383 85.3855C138.611 83.4546 137.01 80.8273 135.157 79.901" stroke="white" stroke-width="10" stroke-linecap="round"/>
<path d="M103.589 127.097C102.892 120.823 100.575 114.247 102.375 107.766C103.307 104.412 105.937 102.9 108.444 100.394" stroke="white" stroke-width="10" stroke-linecap="round"/>
<path d="M85.7867 127.097C85.5878 125.505 79.209 126.288 77.6949 126.288" stroke="white" stroke-width="10" stroke-linecap="round"/>
<path d="M84.9776 104.44C83.4761 104.627 85.9596 112.068 86.5959 113.341" stroke="white" stroke-width="10" stroke-linecap="round"/>
<path d="M90.6418 93.1112C87.5362 92.7662 84.7895 91.4929 81.561 91.4929C79.3043 91.4929 77.3843 92.302 75.2673 92.302" stroke="white" stroke-width="10" stroke-linecap="round"/>
<path d="M68.5302 107.597C61.2771 100.344 59.1254 92.0809 61.3964 82.1858C61.9468 79.7875 62.3377 77.2841 63.1682 74.9587C63.3755 74.3782 64.7475 75.1342 65.2663 75.1919C69.1314 75.6213 72.5958 74.3496 76.0836 73.187" stroke="white" stroke-width="10" stroke-linecap="round"/>
<path d="M89.0922 71.0888C89.0922 75.4506 92.6409 76.5319 95.8064 78.6422" stroke="white" stroke-width="10" stroke-linecap="round"/>
<path d="M105.878 87.8741C107.952 85.0224 107.694 78.2804 107.136 75.0753C106.558 71.75 105.202 70.833 102.94 68.571" stroke="white" stroke-width="10" stroke-linecap="round"/>
<path d="M121.824 78.6422C120.896 76.1238 119.085 74.0932 118.467 71.4152C117.832 68.6651 117.33 65.7496 117.231 62.9292C117.068 58.2828 117.744 53.6891 120.145 49.6874" stroke="white" stroke-width="10" stroke-linecap="round"/>
<path d="M129.797 66.0532C132.63 64.7111 135.616 63.8226 138.376 62.2998C139.752 61.5405 140.762 60.4288 141.546 62.0433C143.227 65.5032 146.201 68.2275 147.841 71.5084" stroke="white" stroke-width="10" stroke-linecap="round"/>
<path d="M103.36 55.1427C100.42 55.1427 97.2397 56.2063 94.361 56.728C84.1405 58.58 73.8716 59.8324 63.4946 60.1783" stroke="white" stroke-width="10" stroke-linecap="round"/>
<path d="M160.85 75.2851C162.305 74.7394 162.469 66.5027 162.621 64.9808C162.943 61.7658 163.404 58.6245 160.943 56.0752C159.421 54.4989 156.139 53.4344 154.275 52.4384C151.558 50.9865 148.874 49.5924 146.023 48.4285C145.444 48.1926 145.153 48.0878 144.904 47.5893" stroke="white" stroke-width="10" stroke-linecap="round"/>
<path d="M77.7621 167.185C76.105 168.658 73.3053 169.858 71.3744 170.962C70.0395 171.724 64.0285 175.616 62.6553 174.319C60.9478 172.706 59.9932 169.86 58.7853 167.838C56.7256 164.389 56.0608 160.53 55.1019 156.694" stroke="white" stroke-width="10" stroke-linecap="round"/>
<path d="M68.1105 137.391C66.7986 137.129 65.7492 135.161 64.8001 134.314C63.9358 133.542 62.8888 132.822 62.2357 131.842C61.3868 130.569 60.5571 128.2 60.5571 126.714C60.5571 125.183 60.9217 125.095 62.0492 124.172C63.4352 123.038 66.0008 121.589 67.6909 121.025" stroke="white" stroke-width="10" stroke-linecap="round"/>
<path d="M55.1019 111.374C52.8943 113.581 49.3372 116.189 47.9681 118.927" stroke="white" stroke-width="10" stroke-linecap="round"/>
<path d="M41.254 152.078C42.4247 151.932 44.0376 147.799 44.8208 146.879C45.9291 145.578 46.786 144.105 48.5975 144.105C50.7013 144.105 52.5915 144.525 54.6822 144.525" stroke="white" stroke-width="10" stroke-linecap="round"/>
<path d="M47.1288 131.516C41.6784 131.516 36.2242 131.936 30.7631 131.936" stroke="white" stroke-width="10" stroke-linecap="round"/>
<path d="M34 115.75C34 114.6 34.5119 113.078 34.8393 111.973C35.588 109.446 35.6785 106.624 35.6785 104" stroke="white" stroke-width="10" stroke-linecap="round"/>
<path d="M161.129 314.661C158.734 315.859 156.588 317.424 154.313 318.826C151.346 320.655 148.748 320.625 145.368 320.625" stroke="white" stroke-width="10" stroke-linecap="round"/>
<path d="M133.866 304.863C133.866 308.794 133.841 312.64 133.44 316.554C133.155 319.33 132.162 322.135 132.162 324.885" stroke="white" stroke-width="10" stroke-linecap="round"/>
<path d="M110.5 275C110.5 275 105 278.5 100 280.5" stroke="white" stroke-width="10" stroke-linecap="round"/>
<path d="M87 288.008C88.7669 295.887 95.3825 304.04 100.417 309.981C102.805 312.8 106.29 315.213 109.694 316.632C110.527 316.98 111.881 317.003 112.425 317.669" stroke="white" stroke-width="10" stroke-linecap="round"/>
<path d="M110.862 294.639C111.519 297.121 112.777 298.894 113.844 301.029" stroke="white" stroke-width="10" stroke-linecap="round"/>
<path d="M70 288.742C72.3201 281.782 74.0908 274.296 78.4252 268.294C80.6252 265.248 84.6435 268.441 87.4657 269.146" stroke="white" stroke-width="10" stroke-linecap="round"/>
<path d="M98.9345 257.022C96.7471 257.022 94.5742 256.564 92.4499 256.075C90.9689 255.735 88.0493 255.509 87.0067 254.466" stroke="white" stroke-width="10" stroke-linecap="round"/>
<path d="M77.2089 227.759C79.4224 227.759 81.5859 228.032 83.7881 228.208C85.049 228.309 86.1969 229.037 87.4327 229.037" stroke="white" stroke-width="10" stroke-linecap="round"/>
<path d="M78.8159 242C76.4772 242.957 73.9849 243.82 72 245.408" stroke="white" stroke-width="10" stroke-linecap="round"/>
<path d="M64.5591 233.296C63.7392 232.385 63.7333 231.366 63.4468 230.22C62.4416 226.199 61.5157 222.203 60.9855 218.079C60.7635 216.353 60.2465 213.613 60.7488 211.855C60.7664 211.793 64.1828 212.401 64.4171 212.423C65.6064 212.533 74.6803 214.901 74.7829 212.849C74.8478 211.552 73.33 206.333 73.9309 206.033" stroke="white" stroke-width="10" stroke-linecap="round"/>
<path d="M45.5555 169.694C45.3466 171.365 39.1028 170.12 38.3137 170.12" stroke="white" stroke-width="10" stroke-linecap="round"/>
<path d="M161.403 332.74C163.563 331.06 174.25 331.921 177.277 331.773C182 331.543 188.287 332.598 192.64 330.18C196.778 327.881 194.176 319.614 194.176 315.33" stroke="white" stroke-width="10" stroke-linecap="round"/>
<path d="M314.342 221.609C316.167 223.637 317.145 226.081 318.503 228.394C319.399 229.921 320.785 231.23 320.68 233.132C320.544 235.563 317.799 237.462 317.799 240.045" stroke="white" stroke-width="10" stroke-linecap="round"/>
<path d="M324.713 209.509C326.663 207.315 328.01 204.305 329.962 201.987C332.278 199.238 334.516 194.845 337.676 193.089C340.837 191.333 343.454 187.071 342.15 180.548C341.865 179.128 339.362 173.765 340.549 172.578C341.427 171.701 343.908 171.382 345.03 170.594C347.017 169.197 349.39 168.583 351.368 167.265" stroke="white" stroke-width="10" stroke-linecap="round"/>
<path d="M327.805 251C335.089 254.139 341.633 258.616 349.133 261.413" stroke="white" stroke-width="10" stroke-linecap="round"/>
<path d="M332.66 228.37V236.436" stroke="white" stroke-width="10" stroke-linecap="round"/>
<path d="M291.288 91.7227C291.591 93.4463 291.259 95.407 291.321 97.158" stroke="white" stroke-width="10" stroke-linecap="round"/>
<path d="M347 244.914C350.206 242.029 354.823 241.124 357.947 238" stroke="white" stroke-width="10" stroke-linecap="round"/>
<path d="M347.03 226.794C347.494 222.618 351.64 218.494 351.64 214.119" stroke="white" stroke-width="10" stroke-linecap="round"/>
<path d="M347.759 202.019C350.115 202.019 364.882 199.844 365.043 202.595C365.269 206.438 364.467 210.16 364.467 213.991C364.467 217.867 369.532 219.511 372.533 221.032C375.753 222.664 379.888 224.312 382.296 227.082C383.767 228.774 384.932 230.977 386.937 231.979" stroke="white" stroke-width="10" stroke-linecap="round"/>
<path d="M337 136.069C339.872 146.687 347.907 150.401 349.678 151.164C351.001 151.735 352.228 151.627 353.5 152.054" stroke="white" stroke-width="10" stroke-linecap="round"/>
<path d="M272 90.9139C273.831 90.7307 274.958 88.5239 276.321 87.4569C277.904 86.2181 279.443 84.8876 281.218 84" stroke="white" stroke-width="10" stroke-linecap="round"/>
<path d="M321.256 103.258C321.094 101.806 319.73 100.393 318.951 99.2253" stroke="white" stroke-width="10" stroke-linecap="round"/>
<path d="M306 102.318C306 98.4515 306.23 95.1201 307.28 91.2427C308.064 88.3475 308.968 82.1231 312.338 81" stroke="white" stroke-width="10" stroke-linecap="round"/>
<path d="M336 122.503C340.069 117.982 341.464 111.508 340.353 105.795C339.652 102.19 338.251 99.2963 337.152 96" stroke="white" stroke-width="10" stroke-linecap="round"/>
<path d="M326 88.7946C326.305 86.0514 331.128 84.9059 333.042 84.0574C337.363 82.1419 342.166 80.1438 346.742 79" stroke="white" stroke-width="10" stroke-linecap="round"/>
<path d="M352 91C355.096 93.7516 360.147 95.7734 364.099 96.7615" stroke="white" stroke-width="10" stroke-linecap="round"/>
<path d="M357.609 118.49C355.977 116.654 354 113 353 111" stroke="white" stroke-width="10" stroke-linecap="round"/>
<path d="M358 184.609C359 183.5 362.567 180.782 364.914 180" stroke="white" stroke-width="10" stroke-linecap="round"/>
<path d="M46.4301 183.582C48.5029 185.425 51.7588 186.463 54.4962 186.463" stroke="white" stroke-width="10" stroke-linecap="round"/>
<path d="M64.2908 193.953C57.6448 199.935 49.3495 201.443 40.6685 201.443" stroke="white" stroke-width="10" stroke-linecap="round"/>
<path d="M66.465 303.163C68.1952 304.893 72.1104 304.157 74.3076 303.791" stroke="white" stroke-width="10" stroke-linecap="round"/>
<path d="M83.0912 312.261C83.0912 314.069 82.7221 316.099 82.4638 317.907" stroke="white" stroke-width="10" stroke-linecap="round"/>
<path d="M58 315C61.5 317.5 65.6278 320.366 67 323C68.6985 326.26 72.5 329.5 75.5 332.5" stroke="white" stroke-width="10" stroke-linecap="round"/>
<path d="M93 324C91.869 327.393 91.465 330.926 90.4167 334.333C88.3449 341.066 84.9172 346.583 80 351.5" stroke="white" stroke-width="10" stroke-linecap="round"/>
<path d="M249.347 295.612C251.398 298.831 252.822 302.467 255.31 305.383C257.226 307.629 259.095 308.097 261.55 309.18" stroke="white" stroke-width="10" stroke-linecap="round"/>
<path d="M115.633 339.143C116.646 338.313 116.816 336.564 117.574 335.5C118.503 334.195 119.787 332.872 121.131 332" stroke="white" stroke-width="10" stroke-linecap="round"/>
<path d="M132 339C132.087 339.694 133.011 340.659 133.306 341.361C134.827 344.99 136.376 348.653 137.278 352.5C138.751 358.783 139.154 368.259 133.5 372.5" stroke="white" stroke-width="10" stroke-linecap="round"/>
<path d="M171 368C168.226 367.434 158.21 362.067 158.662 359.43C158.921 357.919 162.085 349.497 159.756 349.067C157.402 348.633 147.643 350.263 148.402 346.152C149.026 342.767 149.595 337.615 146.901 335" stroke="white" stroke-width="10" stroke-linecap="round"/>
<path d="M206.5 311.5C207.069 313.018 215.251 314.708 217 315" stroke="white" stroke-width="10" stroke-linecap="round"/>
<path d="M279.775 308.063C283.813 308.889 287.758 310.004 291.904 310.004" stroke="white" stroke-width="10" stroke-linecap="round"/>
<path d="M304.519 307.093C304.519 313.707 302.858 320.016 299.182 325.53" stroke="white" stroke-width="10" stroke-linecap="round"/>
<path d="M303.064 293.023C303.194 294.068 303.901 292.937 304.034 292.537" stroke="white" stroke-width="10" stroke-linecap="round"/>
<path d="M312.767 275.556C315.601 275.556 319.987 274.857 322.471 273.615" stroke="white" stroke-width="10" stroke-linecap="round"/>
<path d="M332.66 267.793C332.856 269.749 334.36 271.818 334.843 273.804C335.441 276.263 335.639 277.917 335.086 280.408" stroke="white" stroke-width="10" stroke-linecap="round"/>
<path d="M182.737 78.5703C183.823 78.4497 184.7 76.6075 185.433 75.8748C186.986 74.3217 188.681 72.9908 190.5 71.7776" stroke="white" stroke-width="10" stroke-linecap="round"/>
<path d="M175.46 67.411C175.46 64.1452 175.945 60.9693 175.945 57.7072" stroke="white" stroke-width="10" stroke-linecap="round"/>
<path d="M210 71.3667C210.288 69.0661 217.218 67 219.219 67" stroke="white" stroke-width="10" stroke-linecap="round"/>
<path d="M178.829 344C179.838 348.162 180.093 351.52 178.628 355.531" stroke="white" stroke-width="10" stroke-linecap="round"/>
<path d="M166.241 45.0924C167.772 44.9223 169.344 42.9555 170.635 42.1813C172.235 41.2214 174.132 40.5979 175.46 39.2702" stroke="white" stroke-width="10" stroke-linecap="round"/>
<path d="M131.793 45.0924C133.772 44.4327 135.65 38.2283 136.645 36.4669C137.66 34.6689 138.635 33.4257 140.526 32.5854C142.037 31.9141 146.045 33.9436 147.696 34.3105C149.151 34.6338 150.68 35.3887 152.171 35.3887" stroke="white" stroke-width="10" stroke-linecap="round"/>
<path d="M231.911 60.7037C231.911 57.0517 230.536 54.0727 229 51" stroke="white" stroke-width="10" stroke-linecap="round"/>
<path d="M190.986 105.256C191.659 98.5231 195.264 92.1242 198.506 86.3602C200.139 83.4573 202.914 85.0195 205.541 86.3332" stroke="white" stroke-width="10" stroke-linecap="round"/>
<path d="M189.53 58.1924C189.53 48.8331 188.206 38.744 190.5 29.5664" stroke="white" stroke-width="10" stroke-linecap="round"/>
<path d="M202.145 48.9739C203.929 50.5594 206.79 51.4608 208.938 52.478C210.013 52.9873 210.184 52.2201 210.905 51.319C214.028 47.4161 217.008 43.8148 220.582 40.2405" stroke="white" stroke-width="10" stroke-linecap="round"/>
<path d="M205.541 35.3887C206.615 34.3145 207.985 32.9568 209.423 32.4776" stroke="white" stroke-width="10" stroke-linecap="round"/>
<path d="M269.586 76.6295C272.638 73.5776 275.98 69.7106 275.893 65.2007C275.846 62.7354 276.19 57.5192 274.438 55.7665" stroke="white" stroke-width="10" stroke-linecap="round"/>
<path d="M296.271 73.7184C295.151 73.3449 294.235 69.5087 293.818 68.57C291.641 63.6715 289.435 58.7782 288.05 53.5832C287.197 50.3852 285.536 42.7577 287.538 39.7554" stroke="white" stroke-width="10" stroke-linecap="round"/>
<path d="M320.53 69.8369C323.294 69.5605 325.969 69.3517 328.779 69.3517" stroke="white" stroke-width="10" stroke-linecap="round"/>
<path d="M306.46 64.985C309.1 62.1418 311.623 59.5357 314.708 57.222" stroke="white" stroke-width="10" stroke-linecap="round"/>
<path d="M301.123 47.0331C301.123 49.0151 301.43 49.241 302.578 47.5183" stroke="white" stroke-width="10" stroke-linecap="round"/>
<path d="M258.912 60.6184C258.912 57.1549 258.427 53.6917 258.427 50.1868C258.427 48.6567 258.136 49.2831 256.944 49.4321C254.616 49.7232 251.965 49.5865 249.693 49.0817C241.493 47.2594 242.901 36.9921 242.901 30.5368" stroke="white" stroke-width="10" stroke-linecap="round"/>
<path d="M257.456 35.8739C262.024 35.8739 266.692 35.4114 269.586 39.2702" stroke="white" stroke-width="10" stroke-linecap="round"/>
<path d="M207.967 18.4072C212.265 18.6334 219.802 19.0829 223.008 22.2887C224.39 23.6712 226.068 25.9819 226.889 27.6257" stroke="white" stroke-width="10" stroke-linecap="round"/>
<path d="M47.8557 96.5221C43.0857 91.2222 37.1758 87.7888 29.9038 87.7888" stroke="white" stroke-width="10" stroke-linecap="round"/>
<path d="M48.826 77.1147C48.826 74.4342 50.4732 73.1435 51.252 70.8073" stroke="white" stroke-width="10" stroke-linecap="round"/>
<path d="M111.415 36.8442C113.969 35.5673 119.293 33.0391 122.089 34.9035" stroke="white" stroke-width="10" stroke-linecap="round"/>
<path d="M368 112.567C372.657 108.376 377.594 105.308 379.644 98.9815C381.193 94.2028 380.873 86.2253 377.704 82" stroke="white" stroke-width="10" stroke-linecap="round"/>
<path d="M209.908 330.382C210.102 332.125 212.993 333.695 214.382 334.263C217.443 335.516 221.564 335.963 224.356 333.778C229.584 329.687 229.021 321.122 234.275 317.282C236.326 315.783 237.129 317.51 239.235 318.845C245.196 322.624 251.259 326.454 257.834 329.034C260.177 329.954 262.621 332.01 264.734 329.897C266.548 328.082 268.51 326.58 270.556 325.045" stroke="white" stroke-width="10" stroke-linecap="round"/>
<path d="M301.123 31.9924C306.766 29.0225 312.38 24.2901 318.482 22.3965C319.594 22.0513 322.007 27.0649 323.819 27.5179C329.491 28.9359 337.924 27.998 342.849 24.7146" stroke="white" stroke-width="10" stroke-linecap="round"/>
<path d="M33.3001 69.8369C27.7841 66.8031 22.0567 62.7643 17.2889 58.6776" stroke="white" stroke-width="10" stroke-linecap="round"/>
<path d="M40.5779 59.648C44.5735 55.6524 49.0151 53.0528 53.6779 49.9443" stroke="white" stroke-width="10" stroke-linecap="round"/>
<path d="M15.8334 42.1813C19.4037 42.1813 22.6245 42.5684 25.5371 44.6072" stroke="white" stroke-width="10" stroke-linecap="round"/>
<path d="M37.1816 46.548C39.363 44.0939 40.7088 40.5183 41.0631 37.3294" stroke="white" stroke-width="10" stroke-linecap="round"/>
<path d="M54.6483 36.359C60.1347 35.6732 68.5976 34.3581 71.1446 40.7257" stroke="white" stroke-width="10" stroke-linecap="round"/>
<path d="M27.4779 30.5368C30.238 27.4316 33.6948 24.8051 36.6964 21.8035C39.1494 19.3504 41.1965 17.6467 44.5672 18.8924C48.5528 20.3653 52.9074 20.8107 57.0203 21.8035C59.9943 22.5213 63.4218 23.7442 66.5084 23.7442C67.2997 23.7442 68.1566 22.6195 68.7187 22.073C70.2516 20.5826 71.8925 19.6657 73.5705 18.4072" stroke="white" stroke-width="10" stroke-linecap="round"/>
<path d="M16.3186 115.93C15.8748 119.479 14.6063 122.581 14.9708 126.226C15.353 130.048 15.4902 133.651 16.9116 137.278C18.3568 140.966 22.7286 148.922 27.4779 148.922" stroke="white" stroke-width="10" stroke-linecap="round"/>
<path d="M17.2889 99.9184C17.2889 101.385 16.9365 96.9967 16.5612 95.5787C15.8149 92.7594 15.4626 89.8639 14.7552 87.0341C14.1832 84.7461 18.5007 80.2696 20.2001 78.5703" stroke="white" stroke-width="10" stroke-linecap="round"/>
<path d="M9.10004 69.3517C9.49529 69.3023 9.58522 68.9033 9.58522 69.3517" stroke="white" stroke-width="10" stroke-linecap="round"/>
<path d="M87.0325 42.9375C87.0325 38.3974 84.6513 33.4127 83.55 29.0075" stroke="white" stroke-width="10" stroke-linecap="round"/>
<path d="M99.9675 34.48C100.47 28.9504 103.05 20.02 108.922 18.0625" stroke="white" stroke-width="10" stroke-linecap="round"/>
<path d="M27.3525 162.337C24.6157 167.065 20.6273 171.215 17.7342 175.936C15.5762 179.457 13.91 183.412 11.4325 186.715" stroke="white" stroke-width="10" stroke-linecap="round"/>
<path d="M31.3175 183.242H31.815" stroke="white" stroke-width="10" stroke-linecap="round"/>
<path d="M27.3325 210.098C27.9963 210.18 28.8595 211.654 29.3778 212.115C30.8671 213.439 32.3865 214.654 33.8 216.068" stroke="white" stroke-width="10" stroke-linecap="round"/>
<path d="M46.735 219.053C46.5173 224.495 42.926 226.115 38.2775 227.51" stroke="white" stroke-width="10" stroke-linecap="round"/>
<path d="M6.4375 221.54C8.34539 221.54 18.2272 219.825 18.875 222.093C20.4387 227.566 22.6446 231.973 25.2319 236.963C27.1502 240.662 28.9393 247.337 32.5286 249.621C34.2831 250.738 39.2558 245.431 40.765 244.425" stroke="white" stroke-width="10" stroke-linecap="round"/>
<path d="M52.705 236.962C56.5843 240.842 56.8733 242.883 55.69 248.405" stroke="white" stroke-width="10" stroke-linecap="round"/>
<path d="M18.875 256.365C24.2538 261.744 30.6904 266.962 37.78 269.797" stroke="white" stroke-width="10" stroke-linecap="round"/>
<path d="M48.2275 260.345C52.2696 264.892 55.5875 273.485 52.705 279.25" stroke="white" stroke-width="10" stroke-linecap="round"/>
<path d="M66 262.868C66.469 262.341 66.4285 261.514 66 262.371" stroke="white" stroke-width="10" stroke-linecap="round"/>
<path d="M31 328.868C31.469 328.341 31.4285 327.514 31 328.371" stroke="white" stroke-width="10" stroke-linecap="round"/>
<path d="M34 394.868C34.469 394.341 34.4285 393.514 34 394.371" stroke="white" stroke-width="10" stroke-linecap="round"/>
<path d="M6.40975 255.333C6.79072 259.829 5.60597 264.458 5.6805 268.986C5.73984 272.592 6.18069 276.199 6.48512 279.791" stroke="white" stroke-width="10" stroke-linecap="round"/>
<path d="M21.3625 276.265C21.3625 279.527 20.3136 282.141 18.3775 284.723" stroke="white" stroke-width="10" stroke-linecap="round"/>
<path d="M32.805 281.24C34.0318 282.344 35.8452 282.929 37.2825 283.727" stroke="white" stroke-width="10" stroke-linecap="round"/>
<path d="M9.92 295.668C12.4592 296.937 15.0749 298.185 17.88 298.653" stroke="white" stroke-width="10" stroke-linecap="round"/>
<path d="M32.3225 295.663C32.3225 300.319 31.6459 304.935 29.835 309.261C28.2074 313.149 25.3731 313.813 21.875 315.563" stroke="white" stroke-width="10" stroke-linecap="round"/>
<path d="M8.4425 311.085C8.4425 314.559 8.73351 318.191 9.27167 321.615C10.4941 329.395 13.7168 334.527 20.3825 338.447" stroke="white" stroke-width="10" stroke-linecap="round"/>
<path d="M43.2525 318.055C48.0317 323.312 48.2275 330.76 48.2275 337.457" stroke="white" stroke-width="10" stroke-linecap="round"/>
<path d="M46.2375 303.13C47.2262 303.006 48.6107 299.767 49.2225 299.039C51.4096 296.44 54.0413 294.263 56.1875 291.688" stroke="white" stroke-width="10" stroke-linecap="round"/>
<path d="M33.8 343.925C29.4812 351.843 19.3766 355.516 10.915 356.362" stroke="white" stroke-width="10" stroke-linecap="round"/>
<path d="M60.1675 340.94C62.5 343.5 65.8056 349.12 66.635 351.885" stroke="white" stroke-width="10" stroke-linecap="round"/>
<path d="M43.2525 353.875C43.4486 355.444 49.839 354.87 51.2125 354.87" stroke="white" stroke-width="10" stroke-linecap="round"/>
<path d="M103.026 338C103.026 345.888 102.223 352.058 109.494 356.905" stroke="white" stroke-width="10" stroke-linecap="round"/>
<path d="M122.852 356.363C122.115 356.27 122.137 352.723 121.857 351.885" stroke="white" stroke-width="10" stroke-linecap="round"/>
<path d="M118.458 373C115.484 374.029 112.908 376.011 110 376.98" stroke="white" stroke-width="10" stroke-linecap="round"/>
<path d="M87 364C91.4091 364 95.2665 365.033 98.94 367.483" stroke="white" stroke-width="10" stroke-linecap="round"/>
<path d="M33.6874 365.985C38.5661 368.053 41.5072 372.617 47.0971 373.408C48.1769 373.56 49.1161 373.205 50.1176 372.774C53.1683 371.462 56.2315 370.205 59.3722 369.114C59.903 368.93 63.9178 366.9 64.1113 367.579C71.7541 375.1 75.729 379.103 87.5 380" stroke="white" stroke-width="10" stroke-linecap="round"/>
<path d="M15.0762 373.224C14.2649 374.752 12.6817 376.238 11.5471 377.537C10.6367 378.579 8.85964 379.879 8.32347 381.19C8.07449 381.798 9.20338 383.64 9.4028 384.126C10.6423 387.15 11.5126 390.142 13.4874 392.784" stroke="white" stroke-width="10" stroke-linecap="round"/>
<path d="M30.1937 379C28.4754 381.147 27.3085 383.851 25 385.491" stroke="white" stroke-width="10" stroke-linecap="round"/>
<path d="M283.775 331.162C284.252 329.395 285.344 327.84 285.738 326" stroke="white" stroke-width="10" stroke-linecap="round"/>
<path d="M192.499 344.502C195.566 344.502 198.616 344.161 201.692 344.161" stroke="white" stroke-width="10" stroke-linecap="round"/>
<path d="M238.123 335.309C237.352 337.044 236.2 338.917 235.74 340.756" stroke="white" stroke-width="10" stroke-linecap="round"/>
<path d="M252.083 342.118C253.123 342.234 254.727 343.893 255.412 344.577C256.874 346.039 257.697 347.675 258.893 349.268" stroke="white" stroke-width="10" stroke-linecap="round"/>
<path d="M196.181 361.93C196.324 363.072 200.059 362.492 200.833 362.481C205.595 362.414 210.562 361.342 214.33 358.349C217.493 355.837 220.237 351.463 221.523 347.606" stroke="white" stroke-width="10" stroke-linecap="round"/>
<path d="M242.457 354.768C244.097 356.613 245.307 359.251 247.109 361.256C250.408 364.927 254.437 368.245 258.984 370.193" stroke="white" stroke-width="10" stroke-linecap="round"/>
<path d="M272.206 340.995C274.391 343.455 273.508 350.716 273.185 353.666C272.889 356.366 272.515 358.865 270.553 360.828" stroke="white" stroke-width="10" stroke-linecap="round"/>
<path d="M151 378.29C153.433 378.033 156.44 379.059 158.812 379.479C165.508 380.666 172.344 381.222 179.096 382.014C182.084 382.364 181.84 380.32 183.002 377.95C184.004 375.909 185.605 373.678 186.171 371.539" stroke="white" stroke-width="10" stroke-linecap="round"/>
<path d="M192 388.12C194.991 384.797 199.951 380.244 201.365 376" stroke="white" stroke-width="10" stroke-linecap="round"/>
<path d="M230.921 362.019C229.873 366.31 225.98 369.142 223.51 372.409C221.947 374.475 225.464 380.174 226.209 382.001C227.215 384.465 228.96 391.002 231.44 392.375" stroke="white" stroke-width="10" stroke-linecap="round"/>
<path d="M243.559 382.11C247.345 384.102 251.084 386.059 255.097 387.588C256.81 388.241 262.026 390.406 263.942 389.7C271.52 386.908 279.037 381.118 282.673 373.846" stroke="white" stroke-width="10" stroke-linecap="round"/>
<path d="M296.65 341.84C295.033 347.025 289.591 351.887 288.971 357.292C288.728 359.409 294.712 361.233 296.014 361.853C299.662 363.588 303.57 364.997 304.221 369.408C304.948 374.336 301.897 378.143 298.781 381.579C296.383 384.225 294.413 387.343 292.301 390.219C291.687 391.055 290.972 392.981 290.073 393.253" stroke="white" stroke-width="10" stroke-linecap="round"/>
<path d="M98.6714 388.924C93 393.5 84.5 396.5 73.5 394" stroke="white" stroke-width="10" stroke-linecap="round"/>
<path d="M320.714 291.192C326.672 297.15 342.627 301.958 346.216 291.192" stroke="white" stroke-width="10" stroke-linecap="round"/>
<path d="M373.481 236C373.481 238.276 373.719 240.578 373 242.736" stroke="white" stroke-width="10" stroke-linecap="round"/>
<path d="M336 316C337.866 316.207 340.678 318.913 342.148 319.956C343.987 321.261 345.623 322.34 345.623 324.661" stroke="white" stroke-width="10" stroke-linecap="round"/>
<path d="M327.371 328.556C326.966 327.247 325.618 326.19 324.827 325.105C323.462 323.232 322.63 321.169 321.806 319.022C321.134 317.269 319.844 314.823 320.495 313.003" stroke="white" stroke-width="10" stroke-linecap="round"/>
<path d="M309.564 352.902C318.907 356.787 328.822 359.209 338.268 362.872" stroke="white" stroke-width="10" stroke-linecap="round"/>
<path d="M311.069 334.411C315.826 337.315 320.499 340.771 325.694 342.775" stroke="white" stroke-width="10" stroke-linecap="round"/>
<path d="M59.9995 384C59.068 386.638 57.5329 392.838 54.7665 393.986" stroke="white" stroke-width="10" stroke-linecap="round"/>
<path d="M212 384C212.089 386.226 212.492 389.796 213.444 391.699" stroke="white" stroke-width="10" stroke-linecap="round"/>
<path d="M316.244 368.794C317.464 371.538 317.071 376.281 315.763 378.898" stroke="white" stroke-width="10" stroke-linecap="round"/>
<path d="M313.069 391.994C319.908 391.994 326.102 391.004 331.834 387.182" stroke="white" stroke-width="10" stroke-linecap="round"/>
<path d="M329.134 374.797C332.046 374.797 335.313 375.714 337.795 377.203" stroke="white" stroke-width="10" stroke-linecap="round"/>
<path d="M340.444 400.922C346.629 394.737 353.174 388.991 358.247 381.782C360.335 378.815 358.681 378.259 356.082 375.661C354.032 373.611 351.67 371.41 349.105 370.127" stroke="white" stroke-width="10" stroke-linecap="round"/>
<path d="M338.998 347.488C341.536 344.633 339.96 340.683 339.96 337.384" stroke="white" stroke-width="10" stroke-linecap="round"/>
<path d="M370.226 392.962C370.796 392.891 370.707 392.479 370.707 392" stroke="white" stroke-width="10" stroke-linecap="round"/>
<path d="M380.639 385.876C386.354 386.511 394.111 394.381 394.111 400.311" stroke="white" stroke-width="10" stroke-linecap="round"/>
<path d="M400 369C396 366 389.109 359.313 387.703 356.149C387.533 355.767 386.052 356.943 385.565 357.219C383.166 358.574 380.047 359.393 377.278 358.983C368.075 357.62 371.236 349.346 371.236 342.677" stroke="white" stroke-width="10" stroke-linecap="round"/>
<path d="M384 343.622C386.047 341.461 391.354 334.464 394.991 336.117C396.795 336.937 398.351 338.359 399.952 339.56C401.534 340.746 403.318 343.005 405.17 343.622" stroke="white" stroke-width="10" stroke-linecap="round"/>
<path d="M-16.2231 343.622C-14.1758 341.461 -8.86892 334.464 -5.23196 336.117C-3.42816 336.937 -1.87239 338.359 -0.270954 339.56C1.31061 340.746 3.09525 343.005 4.94665 343.622" stroke="white" stroke-width="10" stroke-linecap="round"/>
<path d="M352.952 347.007C353.88 342.987 356.259 337.65 358.566 334.229C362.797 327.955 370.173 323.759 377.01 321.024" stroke="white" stroke-width="10" stroke-linecap="round"/>
<path d="M380.379 306.995C384.071 306.995 388.764 311.705 390.483 314.587C391.786 316.77 391.927 318.536 391.927 320.949" stroke="white" stroke-width="10" stroke-linecap="round"/>
<path d="M354.877 316.694C354.877 313.572 354.411 310.07 355.358 307.07C356.812 302.465 360.622 298.977 362.094 294.56" stroke="white" stroke-width="10" stroke-linecap="round"/>
<path d="M353.642 277.107C362.567 278.862 371.618 280.826 380.217 283.829C381.512 284.281 376.26 294.26 375.881 296.19" stroke="white" stroke-width="10" stroke-linecap="round"/>
<path d="M361 255C364.074 258.074 365.331 260.536 365.331 264.864C365.331 267.537 368.879 266.909 371.131 267.002C374.822 267.156 378.5 266.5 388.5 268.5" stroke="white" stroke-width="10" stroke-linecap="round"/>
<path d="M379.416 255.104C383.443 253.314 386.953 251.738 389.521 247.886" stroke="white" stroke-width="10" stroke-linecap="round"/>
<path d="M394 283C394.161 286.213 394.5 291 392 297.5" stroke="white" stroke-width="10" stroke-linecap="round"/>
<path d="M387.115 210.355C383.53 206.372 378.496 201.394 378 195.68C377.635 191.487 377.973 187.136 377.973 182.929" stroke="white" stroke-width="10" stroke-linecap="round"/>
<path d="M390.964 189.816C391.323 186.231 392.408 182.925 392.408 179.257C392.408 176.954 391.927 174.78 391.927 172.494" stroke="white" stroke-width="10" stroke-linecap="round"/>
<path d="M376 167.5C378.914 161.563 379.106 160.5 380.822 158.964C383.016 157.001 402 152.5 409 150" stroke="white" stroke-width="10" stroke-linecap="round"/>
<path d="M365.944 155.502C364.839 156.729 364.05 158.776 363.538 160.314" stroke="white" stroke-width="10" stroke-linecap="round"/>
<path d="M394.333 220.46C394.902 220.389 394.814 219.977 394.814 219.497" stroke="white" stroke-width="10" stroke-linecap="round"/>
<path d="M378.715 128.751C380.909 125.693 382.811 122.458 384.983 119.429" stroke="white" stroke-width="10" stroke-linecap="round"/>
<path d="M359.152 59C359.152 63.7033 357.59 74.7785 364.472 75.9255" stroke="white" stroke-width="10" stroke-linecap="round"/>
<path d="M399.827 88.2237C399.59 83.717 397.776 78.5161 396.442 74.1997C395.924 72.5226 395.571 67.9528 393.809 66.9459C389.643 64.565 384.632 67.4294 380 67.4294" stroke="white" stroke-width="10" stroke-linecap="round"/>
<path d="M399.827 88.2237C399.59 83.717 397.776 78.5161 396.442 74.1997C395.924 72.5226 395.571 67.9528 393.809 66.9459C389.643 64.565 384.632 67.4294 380 67.4294" stroke="white" stroke-width="10" stroke-linecap="round"/>
<path d="M356.5 43C360.845 43 370.857 44.071 372.5 49" stroke="white" stroke-width="10" stroke-linecap="round"/>
<path d="M342 66C341.85 64.6529 339.84 63.3403 338.972 62.4722C337.157 60.6574 335.343 58.8426 333.528 57.0278C332.369 55.8691 331.261 54.5 329.5 54.5" stroke="white" stroke-width="10" stroke-linecap="round"/>
<path d="M320.5 41.5C325.744 41.5 331.117 40.5 336.444 40.5C338.177 40.5 339.953 42.4688 341.5 43.5" stroke="white" stroke-width="10" stroke-linecap="round"/>
<path d="M361 30C361.193 27.8734 362.323 25.9455 362.472 23.7778C362.588 22.1025 362.593 20.6295 363 19" stroke="white" stroke-width="10" stroke-linecap="round"/>
<path d="M331.5 15C331.029 12.6467 326.757 10.5508 324.889 9.5C321.757 7.73812 318.114 6.5 314.5 6.5" stroke="white" stroke-width="10" stroke-linecap="round"/>
<path d="M346 10.5C347.494 10.3506 348.844 9.20409 350.111 8.5C352.599 7.11795 355.29 6.31306 358 5.5" stroke="white" stroke-width="10" stroke-linecap="round"/>
<path d="M240.5 18C243.795 17.7005 247.151 15.6642 250.472 15C252.917 14.511 253.103 15.045 254.611 17C256.845 19.8958 258.731 20.6537 261.5 22.5" stroke="white" stroke-width="10" stroke-linecap="round"/>
<path d="M262 6C263.242 6.13802 264.112 7 265.5 7" stroke="white" stroke-width="10" stroke-linecap="round"/>
<path d="M278.5 9.5C279.556 8.37847 280.126 7.18693 281.5 6.5" stroke="white" stroke-width="10" stroke-linecap="round"/>
<path d="M377.5 31.5C379.286 30.6069 381.5 25.6666 382.75 24C385.215 20.7135 387.432 17.2757 389.889 14C391.489 11.8666 390.606 11.3124 388.111 10.5C383.558 9.01771 378.707 8.67247 374 8" stroke="white" stroke-width="10" stroke-linecap="round"/>
<path d="M387.5 53.5C391.285 53.5 394.856 52.9312 398.528 52.4722C400.027 52.2848 404.272 49.9555 405 48.5" stroke="white" stroke-width="10" stroke-linecap="round"/>
<path d="M391.5 39.5C397.719 32.5899 404.361 24.5463 413.5 21.5" stroke="white" stroke-width="10" stroke-linecap="round"/>
<path d="M124 18.5C127.886 18.0682 132.308 16.3635 136.194 15.5C139.346 14.7997 142.295 14.5 145.5 14.5C147.11 14.5 149.099 15.8555 150.528 16.5278C153.858 18.0951 157.288 20.0087 160.889 20.8889C163.926 21.6313 166.536 21.8707 169.5 20.3889C173.988 18.145 179.816 14.5 185 14.5" stroke="white" stroke-width="10" stroke-linecap="round"/>
<path d="M19 5.5C21.2637 5.78296 28.5 7.44805 28.5 10.5" stroke="white" stroke-width="10" stroke-linecap="round"/>
<path d="M86 16C86 12.2748 82.0083 7.66944 78.5 6.5" stroke="white" stroke-width="10" stroke-linecap="round"/>
<path d="M61 8.99999C52.5 4.49999 44 4.99999 41.5 5.99999" stroke="white" stroke-width="10" stroke-linecap="round"/>
<path d="M1.24873 102.934C-2.93166 102.08 -7.24646 103.994 -11 105.574" stroke="white" stroke-width="10" stroke-linecap="round"/>
<path d="M2.18743 118C2.09589 118.732 -0.0341055 120.517 -0.605803 121.17C-1.34867 122.019 -2.20231 122.789 -3 123.586" stroke="white" stroke-width="10" stroke-linecap="round"/>
<path d="M402.187 118C402.096 118.732 399.966 120.517 399.394 121.17C398.651 122.019 397.798 122.789 397 123.586" stroke="white" stroke-width="10" stroke-linecap="round"/>
<path d="M-46 139.385C-42.447 138.046 -38.6929 136.24 -34.8714 135.815C-33.4105 135.653 -33.4143 136.591 -32.8319 137.788C-31.5201 140.485 -30.0603 142.142 -27.8218 143.973C-25.5011 145.872 -24.0198 145.285 -21.6368 144.173C-14.5266 140.855 -6.73038 138.665 0.686844 136.192" stroke="white" stroke-width="10" stroke-linecap="round"/>
<path d="M-0.172939 88.2237C-0.410132 83.717 -2.22389 78.5161 -3.55805 74.1997C-4.07643 72.5226 -4.42881 67.9528 -6.19091 66.9459C-10.3574 64.565 -15.3683 67.4294 -20 67.4294" stroke="white" stroke-width="10" stroke-linecap="round"/>
<path d="M-0.172939 88.2237C-0.410132 83.717 -2.22389 78.5161 -3.55805 74.1997C-4.07643 72.5226 -4.42881 67.9528 -6.19091 66.9459C-10.3574 64.565 -15.3683 67.4294 -20 67.4294" stroke="white" stroke-width="10" stroke-linecap="round"/>
<path d="M404.249 102.934C400.068 102.08 395.754 103.994 392 105.574" stroke="white" stroke-width="10" stroke-linecap="round"/>
<path d="M354 139.385C357.553 138.046 361.307 136.24 365.129 135.815C366.59 135.653 366.586 136.591 367.168 137.788C368.48 140.485 369.94 142.142 372.178 143.973C374.499 145.872 375.98 145.285 378.363 144.173C385.473 140.855 393.27 138.665 400.687 136.192" stroke="white" stroke-width="10" stroke-linecap="round"/>
<path d="M-12.5 53.5C-8.71502 53.5 -5.1437 52.9312 -1.47222 52.4722C0.0267998 52.2848 4.27227 49.9555 5 48.5" stroke="white" stroke-width="10" stroke-linecap="round"/>
<path d="M-8.5 39.5C-2.28095 32.5899 4.36119 24.5463 13.5 21.5" stroke="white" stroke-width="10" stroke-linecap="round"/>
<path d="M5 7C5 7.37938 5.14616 7.17692 5.5 7" stroke="white" stroke-width="10" stroke-linecap="round"/>
<path d="M-24 167.5C-21.0858 161.563 -20.8942 160.5 -19.1778 158.964C-16.9838 157.001 2 152.5 9 150" stroke="white" stroke-width="10" stroke-linecap="round"/>
<path d="M6.09059 168.381C7.17936 166.921 8.41814 164.69 9.07562 163" stroke="white" stroke-width="10" stroke-linecap="round"/>
<path d="M0.287781 369C-3.71222 366 -10.6033 359.313 -12.0091 356.149C-12.1789 355.767 -13.6599 356.943 -14.1477 357.219C-16.5458 358.574 -19.6656 359.393 -22.4345 358.983C-31.6368 357.62 -28.4758 349.346 -28.4758 342.677" stroke="white" stroke-width="10" stroke-linecap="round"/>
<path d="M-2.5 202.25C2.20874 204.997 8.94962 205.007 14.0833 203.444C17.5528 202.389 19.8588 200.034 22 197.25" stroke="white" stroke-width="10" stroke-linecap="round"/>
<path d="M397 202.25C401.709 204.997 408.45 205.007 413.583 203.444C417.053 202.389 419.359 200.034 421.5 197.25" stroke="white" stroke-width="10" stroke-linecap="round"/>
<path d="M-1.74963 238.427C2.49449 238.427 6.98917 239.61 11.0904 240.567" stroke="white" stroke-width="10" stroke-linecap="round"/>
<path d="M398 238.427C402.244 238.427 406.739 239.61 410.84 240.567" stroke="white" stroke-width="10" stroke-linecap="round"/>
<path d="M169.463 392C169.463 398.003 167.044 402.509 162.913 406.64" stroke="white" stroke-width="10" stroke-linecap="round"/>
<path d="M181.635 397.32C182.873 398.712 183.537 400.811 184.717 402.328" stroke="white" stroke-width="10" stroke-linecap="round"/>
<path d="M201.054 397C198.368 401.95 196.462 405.976 196.816 411.64" stroke="white" stroke-width="10" stroke-linecap="round"/>
<path d="M244.393 -2.75037C243.121 0.157565 240.946 2.87526 238.402 4.77288C234.816 7.44792 230.756 8.45159 226.457 9.35658" stroke="white" stroke-width="10" stroke-linecap="round"/>
<path d="M244.393 397C243.121 399.908 240.946 402.626 238.402 404.523C234.816 407.198 230.756 408.202 226.457 409.107" stroke="white" stroke-width="10" stroke-linecap="round"/>
<path d="M211.841 6.61298C212.2 6.57302 212.324 6.41912 212.611 6.22772" stroke="white" stroke-width="10" stroke-linecap="round"/>
<path d="M169.463 -8.0267C169.463 -2.024 167.044 2.48245 162.913 6.61298" stroke="white" stroke-width="10" stroke-linecap="round"/>
<path d="M181.635 -2.70685C182.873 -1.31472 183.537 0.784161 184.717 2.30147" stroke="white" stroke-width="10" stroke-linecap="round"/>
<path d="M140.015 385.525C140.379 387.529 142.909 390.065 144.199 391.506C146.664 394.261 149.383 396.485 152.491 398.463" stroke="white" stroke-width="10" stroke-linecap="round"/>
<path d="M127.539 388.297C127.345 393.72 126.323 399.884 124.304 404.932" stroke="white" stroke-width="10" stroke-linecap="round"/>
<path d="M99.8147 404.007C102.825 400.997 107.229 398.682 110.904 396.614" stroke="white" stroke-width="10" stroke-linecap="round"/>
<path d="M127.539 388.297C127.345 393.72 126.323 399.884 124.304 404.932" stroke="white" stroke-width="10" stroke-linecap="round"/>
<path d="M137.938 404.069H137.483" stroke="white" stroke-width="10" stroke-linecap="round"/>
<path d="M99.8147 404.007C102.825 400.997 107.229 398.682 110.904 396.614" stroke="white" stroke-width="10" stroke-linecap="round"/>
<path d="M140.015 -14.4754C140.379 -12.4708 142.909 -9.93539 144.199 -8.49413C146.664 -5.73943 149.383 -3.51476 152.491 -1.53742" stroke="white" stroke-width="10" stroke-linecap="round"/>
<path d="M127.539 -11.7029C127.345 -6.27957 126.323 -0.115996 124.304 4.93157" stroke="white" stroke-width="10" stroke-linecap="round"/>
<path d="M99.8147 4.00744C102.825 0.997346 107.229 -1.31806 110.904 -3.38568" stroke="white" stroke-width="10" stroke-linecap="round"/>
<path d="M276.5 423.5C285.702 420.837 294.338 420.22 302.665 399.248" stroke="white" stroke-width="10" stroke-linecap="round"/>
<path d="M370.852 374.68C372.833 373.059 376.715 372.453 379.173 371.907" stroke="white" stroke-width="10" stroke-linecap="round"/>
<path d="M137.938 4.06915H137.483" stroke="white" stroke-width="10" stroke-linecap="round"/>
<path d="M276.5 23.5001C285.702 20.8367 294.338 20.2199 302.665 -0.752434" stroke="white" stroke-width="10" stroke-linecap="round"/>
<path d="M340.444 0.922007C346.629 -5.26335 353.174 -11.0086 358.247 -18.2178C360.335 -21.1854 358.681 -21.7407 356.082 -24.3394C354.032 -26.3888 351.67 -28.5903 349.105 -29.8728" stroke="white" stroke-width="10" stroke-linecap="round"/>
<path d="M380.639 -14.1242C386.354 -13.4892 394.111 -5.61891 394.111 0.310891" stroke="white" stroke-width="10" stroke-linecap="round"/>
<path d="M201.054 -3.01837C198.368 1.93186 196.462 5.95716 196.816 11.6213" stroke="white" stroke-width="10" stroke-linecap="round"/>
</g>
<defs>
<clipPath id="clip0_702_3">
<rect width="400" height="400" fill="white"/>
</clipPath>
</defs>
</svg>
